<svg id="visual" viewBox="0 0 224 348" width="224" height="490" xmlns="http://www.w3.org/2000/svg" xmlns:xlink="http://www.w3.org/1999/xlink" version="1.1">
	<rect x="0" y="0" width="224" height="348" fill="#fff">
	</rect>
	<path d="M0 333L5.3 331.2C10.7 329.3 21.3 325.7 32 323.7C42.7 321.7 53.3 321.3 64 323.2C74.7 325 85.3 329 96 330C106.7 331 117.3 329 128 327.2C138.7 325.3 149.3 323.7 160 325C170.7 326.3 181.3 330.7 192 331C202.7 331.3 213.3 327.7 218.7 325.8L224 324L224 349L218.7 349C213.3 349 202.7 349 192 349C181.3 349 170.7 349 160 349C149.3 349 138.7 349 128 349C117.3 349 106.7 349 96 349C85.3 349 74.7 349 64 349C53.3 349 42.7 349 32 349C21.3 349 10.7 349 5.3 349L0 349Z" fill="#29282b" stroke-linecap="round" stroke-linejoin="miter">
	</path>
</svg>
